<?xml version="1.0" standalone="no"?>
<!DOCTYPE svg PUBLIC "-//W3C//DTD SVG 20010904//EN"
 "http://www.w3.org/TR/2001/REC-SVG-20010904/DTD/svg10.dtd">
<svg version="1.0" xmlns="http://www.w3.org/2000/svg"
 width="512.000000pt" height="512.000000pt" viewBox="0 0 512.000000 512.000000"
 preserveAspectRatio="xMidYMid meet">
<metadata>
Created by potrace 1.14, written by Peter Selinger 2001-2017
</metadata>
<g transform="translate(0.000000,512.000000) scale(0.100000,-0.100000)"
fill="#000000" stroke="none">
<path d="M1678 5115 c-1 -1 -25 -6 -53 -9 -342 -45 -666 -323 -779 -668 -37
-115 -47 -198 -50 -429 -2 -117 -7 -236 -11 -264 -61 -415 -288 -766 -639
-989 -32 -20 -71 -51 -86 -68 -48 -52 -61 -136 -32 -208 15 -37 51 -72 118
-115 218 -139 391 -329 502 -551 39 -77 96 -228 107 -282 31 -152 36 -208 40
-396 3 -169 10 -295 20 -336 1 -3 5 -21 9 -40 21 -96 70 -210 132 -306 45 -71
59 -88 139 -169 137 -138 303 -224 517 -271 64 -14 212 -13 247 2 104 43 150
161 104 265 -37 83 -90 111 -228 123 -271 24 -494 231 -530 495 -4 29 -8 143
-10 254 -2 111 -6 222 -9 247 -7 49 -23 143 -31 175 -2 11 -9 40 -15 65 -38
163 -155 415 -266 574 -38 55 -123 156 -190 224 l-120 124 54 52 c47 43 86 84
147 150 26 28 85 107 122 161 162 241 255 486 298 790 4 22 8 139 10 260 4
245 6 261 40 359 72 206 269 361 486 381 137 13 164 22 206 67 89 95 62 255
-52 316 -26 14 -185 28 -197 17z"/>
<path d="M3275 5101 c-175 -82 -140 -354 48 -376 18 -2 59 -6 92 -10 202 -21
374 -140 464 -319 52 -102 60 -158 65 -416 3 -129 7 -245 10 -257 2 -11 8 -43
11 -70 33 -229 133 -491 267 -696 91 -138 167 -228 291 -345 l57 -53 -35 -30
c-253 -222 -450 -541 -538 -869 -50 -186 -55 -229 -62 -515 -6 -256 -15 -315
-61 -410 -92 -190 -273 -315 -477 -331 -138 -11 -192 -40 -228 -119 -48 -105
-2 -226 103 -269 36 -15 172 -16 243 -1 88 18 120 27 179 49 273 103 491 329
585 608 42 123 51 198 56 460 2 131 6 241 8 246 3 4 8 28 12 52 23 160 109
378 208 525 112 167 233 285 419 409 114 76 123 91 123 196 0 103 -10 120
-110 187 -305 204 -485 432 -590 746 -51 155 -67 264 -70 492 -3 162 -11 300
-20 335 -1 3 -5 21 -9 40 -36 163 -134 338 -261 466 -38 39 -86 81 -105 94
-19 13 -37 27 -40 31 -9 12 -174 94 -225 111 -49 17 -120 36 -160 44 -11 2
-63 6 -115 9 -79 4 -102 2 -135 -14z"/>
</g>
</svg>
